#Comment line ignore any data following # character 
#Hierarchical Translation and Rotation (.htr) file 
[Header]	
#Header keywords are followed by a single value 
FileType HTR		#Single word string
DataType HTRS		#Translation followed by rotation and scale data
FileVersion 1		#integer
NumSegments 84		#integer
NumFrames 2		#integer
DataFrameRate 30		#integer, data frame rate in this file
EulerRotationOrder ZYX
CalibrationUnits mm
RotationUnits Degrees
GlobalAxisofGravity Y
BoneLengthAxis Y
ScaleFactor 1.00
[SegmentNames&Hierarchy]
#CHILD	PARENT
MASTER GLOBAL
root MASTER
chest root
L_mid_tent01 root
R_mid_tent01 root
spine01 root
Bip01_Neck chest
L_humerus chest
R_humerus chest
weapon_bone chest
Bip01_Head Bip01_Neck
eye_left_bone Bip01_Head
eye_right_bone Bip01_Head
L_forearm L_humerus
L_front_hand L_forearm
L_weapon_bone L_forearm
L_front_hand01_01 L_front_hand
L_front_hand02_01 L_front_hand
L_front_hand03_01 L_front_hand
L_front_hand01_02 L_front_hand01_01
L_front_hand02_02 L_front_hand02_01
L_front_hand03_02 L_front_hand03_01
R_forearm R_humerus
R_front_hand R_forearm
R_weapon_bone R_forearm
R_front_hand01_01 R_front_hand
R_front_hand02_01 R_front_hand
R_front_hand03_01 R_front_hand
R_front_hand01_02 R_front_hand01_01
R_front_hand02_02 R_front_hand02_01
R_front_hand03_02 R_front_hand03_01
null_rope01_connect L_mid_tent01
Rope1_Seg01 null_rope01_connect
Rope1_Seg02 Rope1_Seg01
Rope1_Seg03 Rope1_Seg02
Rope1_Seg04 Rope1_Seg03
Rope1_Seg05 Rope1_Seg04
Rope1_Seg06 Rope1_Seg05
Rope1_Seg07 Rope1_Seg06
Rope1_Seg09 Rope1_Seg07
L_mid_hand01 Rope1_Seg09
L_mid_hand02 Rope1_Seg09
L_mid_hand03 Rope1_Seg09
null_rope02_connect R_mid_tent01
Rope2_Seg01 null_rope02_connect
Rope2_Seg02 Rope2_Seg01
Rope2_Seg03 Rope2_Seg02
Rope2_Seg04 Rope2_Seg03
Rope2_Seg05 Rope2_Seg04
Rope2_Seg06 Rope2_Seg05
Rope2_Seg07 Rope2_Seg06
Rope2_Seg09 Rope2_Seg07
R_mid_hand01 Rope2_Seg09
R_mid_hand02 Rope2_Seg09
R_mid_hand03 Rope2_Seg09
spine02 spine01
spine03 spine02
pelvis spine03
null_rope03_connect pelvis
null_rope04_connect pelvis
Rope3_Seg01 null_rope03_connect
Rope3_Seg02 Rope3_Seg01
Rope3_Seg03 Rope3_Seg02
Rope3_Seg04 Rope3_Seg03
Rope3_Seg05 Rope3_Seg04
Rope3_Seg06 Rope3_Seg05
Rope3_Seg07 Rope3_Seg06
Rope3_Seg08 Rope3_Seg07
Rope3_Seg09 Rope3_Seg08
R_rear_hand01 Rope3_Seg09
R_rear_hand02 Rope3_Seg09
R_rear_hand03 Rope3_Seg09
Rope4_Seg01 null_rope04_connect
Rope4_Seg02 Rope4_Seg01
Rope4_Seg03 Rope4_Seg02
Rope4_Seg04 Rope4_Seg03
Rope4_Seg05 Rope4_Seg04
Rope4_Seg06 Rope4_Seg05
Rope4_Seg07 Rope4_Seg06
Rope4_Seg08 Rope4_Seg07
Rope4_Seg09 Rope4_Seg08
L_rear_hand01 Rope4_Seg09
L_rear_hand02 Rope4_Seg09
L_rear_hand03 Rope4_Seg09
[BasePosition]
#SegmentName Tx, Ty, Tz, Rx, Ry, Rz, BoneLength
MASTER 0.000000 0.000000 0.000000 -90.000000 0.000000 0.000000 10.000000 
root 0.000000 0.000000 0.000000 0.000000 0.000000 0.000000 10.000000 
chest 0.000000 0.000000 0.000000 0.000000 0.000000 0.000000 10.000000 
L_mid_tent01 0.000000 0.000000 0.000000 0.000000 0.000000 0.000000 10.000000 
R_mid_tent01 0.000000 0.000000 0.000000 0.000000 0.000000 0.000000 10.000000 
spine01 0.000000 0.000000 0.000000 0.000000 0.000000 0.000000 10.000000 
Bip01_Neck 0.000000 0.000000 0.000000 0.000000 0.000000 0.000000 10.000000 
L_humerus 0.000000 0.000000 0.000000 0.000000 0.000000 0.000000 10.000000 
R_humerus 0.000000 0.000000 0.000000 0.000000 0.000000 0.000000 10.000000 
weapon_bone 0.000000 0.000000 0.000000 0.000000 0.000000 0.000000 10.000000 
Bip01_Head 0.000000 0.000000 0.000000 0.000000 0.000000 0.000000 10.000000 
eye_left_bone 0.000000 0.000000 0.000000 0.000000 0.000000 0.000000 10.000000 
eye_right_bone 0.000000 0.000000 0.000000 0.000000 0.000000 0.000000 10.000000 
L_forearm 0.000000 0.000000 0.000000 0.000000 0.000000 0.000000 10.000000 
L_front_hand 0.000000 0.000000 0.000000 0.000000 0.000000 0.000000 10.000000 
L_weapon_bone 0.000000 0.000000 0.000000 0.000000 0.000000 0.000000 10.000000 
L_front_hand01_01 0.000000 0.000000 0.000000 0.000000 0.000000 0.000000 10.000000 
L_front_hand02_01 0.000000 0.000000 0.000000 0.000000 0.000000 0.000000 10.000000 
L_front_hand03_01 0.000000 0.000000 0.000000 0.000000 0.000000 0.000000 10.000000 
L_front_hand01_02 0.000000 0.000000 0.000000 0.000000 0.000000 0.000000 10.000000 
L_front_hand02_02 0.000000 0.000000 0.000000 0.000000 0.000000 0.000000 10.000000 
L_front_hand03_02 0.000000 0.000000 0.000000 0.000000 0.000000 0.000000 10.000000 
R_forearm 0.000000 0.000000 0.000000 0.000000 0.000000 0.000000 10.000000 
R_front_hand 0.000000 0.000000 0.000000 0.000000 0.000000 0.000000 10.000000 
R_weapon_bone 0.000000 0.000000 0.000000 0.000000 0.000000 0.000000 10.000000 
R_front_hand01_01 0.000000 0.000000 0.000000 0.000000 0.000000 0.000000 10.000000 
R_front_hand02_01 0.000000 0.000000 0.000000 0.000000 0.000000 0.000000 10.000000 
R_front_hand03_01 0.000000 0.000000 0.000000 0.000000 0.000000 0.000000 10.000000 
R_front_hand01_02 0.000000 0.000000 0.000000 0.000000 0.000000 0.000000 10.000000 
R_front_hand02_02 0.000000 0.000000 0.000000 0.000000 0.000000 0.000000 10.000000 
R_front_hand03_02 0.000000 0.000000 0.000000 0.000000 0.000000 0.000000 10.000000 
null_rope01_connect 0.000000 0.000000 0.000000 0.000000 0.000000 0.000000 10.000000 
Rope1_Seg01 0.000000 0.000000 0.000000 0.000000 0.000000 0.000000 10.000000 
Rope1_Seg02 0.000000 0.000000 0.000000 0.000000 0.000000 0.000000 10.000000 
Rope1_Seg03 0.000000 0.000000 0.000000 0.000000 0.000000 0.000000 10.000000 
Rope1_Seg04 0.000000 0.000000 0.000000 0.000000 0.000000 0.000000 10.000000 
Rope1_Seg05 0.000000 0.000000 0.000000 0.000000 0.000000 0.000000 10.000000 
Rope1_Seg06 0.000000 0.000000 0.000000 0.000000 0.000000 0.000000 10.000000 
Rope1_Seg07 0.000000 0.000000 0.000000 0.000000 0.000000 0.000000 10.000000 
Rope1_Seg09 0.000000 0.000000 0.000000 0.000000 0.000000 0.000000 10.000000 
L_mid_hand01 0.000000 0.000000 0.000000 0.000000 0.000000 0.000000 10.000000 
L_mid_hand02 0.000000 0.000000 0.000000 0.000000 0.000000 0.000000 10.000000 
L_mid_hand03 0.000000 0.000000 0.000000 0.000000 0.000000 0.000000 10.000000 
null_rope02_connect 0.000000 0.000000 0.000000 0.000000 0.000000 0.000000 10.000000 
Rope2_Seg01 0.000000 0.000000 0.000000 0.000000 0.000000 0.000000 10.000000 
Rope2_Seg02 0.000000 0.000000 0.000000 0.000000 0.000000 0.000000 10.000000 
Rope2_Seg03 0.000000 0.000000 0.000000 0.000000 0.000000 0.000000 10.000000 
Rope2_Seg04 0.000000 0.000000 0.000000 0.000000 0.000000 0.000000 10.000000 
Rope2_Seg05 0.000000 0.000000 0.000000 0.000000 0.000000 0.000000 10.000000 
Rope2_Seg06 0.000000 0.000000 0.000000 0.000000 0.000000 0.000000 10.000000 
Rope2_Seg07 0.000000 0.000000 0.000000 0.000000 0.000000 0.000000 10.000000 
Rope2_Seg09 0.000000 0.000000 0.000000 0.000000 0.000000 0.000000 10.000000 
R_mid_hand01 0.000000 0.000000 0.000000 0.000000 0.000000 0.000000 10.000000 
R_mid_hand02 0.000000 0.000000 0.000000 0.000000 0.000000 0.000000 10.000000 
R_mid_hand03 0.000000 0.000000 0.000000 0.000000 0.000000 0.000000 10.000000 
spine02 0.000000 0.000000 0.000000 0.000000 0.000000 0.000000 10.000000 
spine03 0.000000 0.000000 0.000000 0.000000 0.000000 0.000000 10.000000 
pelvis 0.000000 0.000000 0.000000 0.000000 0.000000 0.000000 10.000000 
null_rope03_connect 0.000000 0.000000 0.000000 0.000000 0.000000 0.000000 10.000000 
null_rope04_connect 0.000000 0.000000 0.000000 0.000000 0.000000 0.000000 10.000000 
Rope3_Seg01 0.000000 0.000000 0.000000 0.000000 0.000000 0.000000 10.000000 
Rope3_Seg02 0.000000 0.000000 0.000000 0.000000 0.000000 0.000000 10.000000 
Rope3_Seg03 0.000000 0.000000 0.000000 0.000000 0.000000 0.000000 10.000000 
Rope3_Seg04 0.000000 0.000000 0.000000 0.000000 0.000000 0.000000 10.000000 
Rope3_Seg05 0.000000 0.000000 0.000000 0.000000 0.000000 0.000000 10.000000 
Rope3_Seg06 0.000000 0.000000 0.000000 0.000000 0.000000 0.000000 10.000000 
Rope3_Seg07 0.000000 0.000000 0.000000 0.000000 0.000000 0.000000 10.000000 
Rope3_Seg08 0.000000 0.000000 0.000000 0.000000 0.000000 0.000000 10.000000 
Rope3_Seg09 0.000000 0.000000 0.000000 0.000000 0.000000 0.000000 10.000000 
R_rear_hand01 0.000000 0.000000 0.000000 0.000000 0.000000 0.000000 10.000000 
R_rear_hand02 0.000000 0.000000 0.000000 0.000000 0.000000 0.000000 10.000000 
R_rear_hand03 0.000000 0.000000 0.000000 0.000000 0.000000 0.000000 10.000000 
Rope4_Seg01 0.000000 0.000000 0.000000 0.000000 0.000000 0.000000 10.000000 
Rope4_Seg02 0.000000 0.000000 0.000000 0.000000 0.000000 0.000000 10.000000 
Rope4_Seg03 0.000000 0.000000 0.000000 0.000000 0.000000 0.000000 10.000000 
Rope4_Seg04 0.000000 0.000000 0.000000 0.000000 0.000000 0.000000 10.000000 
Rope4_Seg05 0.000000 0.000000 0.000000 0.000000 0.000000 0.000000 10.000000 
Rope4_Seg06 0.000000 0.000000 0.000000 0.000000 0.000000 0.000000 10.000000 
Rope4_Seg07 0.000000 0.000000 0.000000 0.000000 0.000000 0.000000 10.000000 
Rope4_Seg08 0.000000 0.000000 0.000000 0.000000 0.000000 0.000000 10.000000 
Rope4_Seg09 0.000000 0.000000 0.000000 0.000000 0.000000 0.000000 10.000000 
L_rear_hand01 0.000000 0.000000 0.000000 0.000000 0.000000 0.000000 10.000000 
L_rear_hand02 0.000000 0.000000 0.000000 0.000000 0.000000 0.000000 10.000000 
L_rear_hand03 0.000000 0.000000 0.000000 0.000000 0.000000 0.000000 10.000000 
#Beginning of Data. Separated by tabs
#Fr	Tx	Ty	Tz	Rx	Ry	Rz	SF
[MASTER]
8 0.000000 0.000000 0.000000 0.001660 0.001660 0.001660 0.000000
9 0.000000 0.000000 0.000000 0.001660 0.001660 0.001660 0.000000
[root]
8 -34.321751 -62.822140 978.145874 -89.053421 -7.449641 -89.829773 980.761963
9 -19.854450 -62.822132 954.672546 -89.421196 -7.576890 -89.830345 956.943359
[chest]
8 -84.512650 -34.090519 0.000000 -0.307809 -0.743092 156.385437 91.129311
9 -84.512650 -34.090519 0.000000 -0.307809 -0.743092 156.385437 91.129311
[L_mid_tent01]
8 23.228750 24.509907 -223.761200 -13.919823 13.512973 -16.809959 226.294907
9 23.228750 24.509907 -223.761200 -15.772425 16.188297 -20.698471 226.294907
[R_mid_tent01]
8 23.228794 24.509907 226.238495 -158.685806 -18.573528 -27.109678 228.744751
9 23.228794 24.509907 226.238495 -158.988281 -15.303433 -25.993076 228.744751
[spine01]
8 -0.361383 -0.195265 0.000000 0.001815 0.001488 11.320961 0.410763
9 -0.361383 -0.195265 0.000000 0.001815 0.001488 11.320963 0.410763
[Bip01_Neck]
8 165.484543 71.581718 0.000119 175.896118 1.177290 24.871183 180.302734
9 165.484543 71.581718 0.000119 175.896118 1.177290 24.871183 180.302734
[L_humerus]
8 -13.983130 -135.272980 -120.471481 -104.702057 -2.574140 -132.238052 181.680161
9 -13.983130 -135.272980 -120.471481 -104.702057 -2.574140 -132.238052 181.680161
[R_humerus]
8 -13.983309 -135.273102 125.287651 84.935959 -3.633308 -127.041824 184.909012
9 -13.983309 -135.273102 125.287651 84.935959 -3.633310 -127.041824 184.909012
[weapon_bone]
8 235.964890 -300.705902 0.000000 0.000000 -89.951546 -128.212341 382.234833
9 235.964890 -300.705902 0.000000 0.000000 -89.951546 -128.212341 382.234833
[Bip01_Head]
8 201.313797 211.516800 15.929742 0.753756 4.841493 -64.861397 292.438629
9 201.313812 211.516800 15.929742 0.534675 3.947080 -64.905029 292.438660
[eye_left_bone]
8 -24.626970 125.451866 -64.772606 0.000000 -90.000000 -99.840431 143.318359
9 -24.626970 125.451866 -64.772606 0.000000 -90.000000 -99.840431 143.318359
[eye_right_bone]
8 -24.626970 125.451866 64.327362 0.000000 -89.965736 80.156380 143.117676
9 -24.626970 125.451866 64.327362 0.000000 -89.965736 80.156380 143.117676
[L_forearm]
8 322.776093 0.000000 -0.000119 0.000357 -0.002320 -107.505997 322.776093
9 322.776093 0.000000 -0.000119 0.000357 -0.002320 -107.506004 322.776093
[L_front_hand]
8 241.149185 -0.042021 -3.300071 -177.752777 -0.319469 -73.408760 241.171753
9 241.149185 -0.042021 -3.300071 -177.752777 -0.319468 -73.408745 241.171753
[L_weapon_bone]
8 156.183838 0.000000 0.000000 0.000014 0.000007 0.000001 156.183838
9 156.183838 0.000000 0.000000 0.000014 0.000007 0.000001 156.183838
[L_front_hand01_01]
8 86.095154 20.947098 -0.655860 0.139491 -0.584553 24.181786 88.609184
9 86.095154 20.947098 -0.655860 0.139491 -0.584553 24.181786 88.609184
[L_front_hand02_01]
8 86.935165 -11.437475 24.513514 119.190460 -21.905655 -12.119137 91.046425
9 86.935165 -11.437475 24.513514 119.190460 -21.905655 -12.119137 91.046425
[L_front_hand03_01]
8 86.637497 -14.123976 -20.424902 -120.437630 20.554031 -14.327168 90.126129
9 86.637497 -14.123976 -20.424902 -120.437630 20.554031 -14.327168 90.126129
[L_front_hand01_02]
8 71.020905 -0.000179 0.000030 0.000334 -0.002323 -106.379684 71.020905
9 71.020905 -0.000179 0.000030 0.000334 -0.002323 -106.379684 71.020905
[L_front_hand02_02]
8 71.020927 -0.000119 0.000060 0.000334 -0.002323 -106.379684 71.020927
9 71.020927 -0.000119 0.000060 0.000334 -0.002323 -106.379684 71.020927
[L_front_hand03_02]
8 71.020905 -0.000060 0.000060 0.000334 -0.002323 -106.379684 71.020905
9 71.020905 -0.000060 0.000060 0.000334 -0.002323 -106.379684 71.020905
[R_forearm]
8 322.776428 -0.000060 0.000030 0.213176 0.008105 -93.737404 322.776428
9 322.776428 -0.000060 0.000030 0.213176 0.008105 -93.737396 322.776428
[R_front_hand]
8 238.847015 -0.006795 2.210259 -1.721140 -0.139412 -83.351707 238.857239
9 238.847015 -0.006795 2.210259 -1.721140 -0.139412 -83.351707 238.857239
[R_weapon_bone]
8 155.664093 0.002503 -0.000030 0.003487 0.001180 -90.988930 155.664078
9 155.664093 0.002503 -0.000030 0.003487 0.001180 -90.988930 155.664078
[R_front_hand01_01]
8 87.624611 14.231146 22.918642 -119.218056 -22.033409 12.303375 91.683487
9 87.624611 14.231146 22.918642 -119.218056 -22.033409 12.303375 91.683487
[R_front_hand02_01]
8 89.356956 14.367283 -19.491137 120.545532 20.947184 14.823009 92.579636
9 89.356956 14.367283 -19.491137 120.545532 20.947184 14.823009 92.579636
[R_front_hand03_01]
8 87.286232 -22.307278 -0.143439 -0.231628 -0.392922 -24.567768 90.091743
9 87.286232 -22.307278 -0.143439 -0.231628 -0.392922 -24.567768 90.091743
[R_front_hand01_02]
8 71.020905 0.000060 0.000119 0.002323 -0.000334 106.381714 71.020905
9 71.020905 0.000060 0.000119 0.002323 -0.000334 106.381714 71.020905
[R_front_hand02_02]
8 71.020844 -0.000030 -0.000119 0.002323 -0.000334 106.381714 71.020836
9 71.020844 -0.000030 -0.000119 0.002323 -0.000334 106.381714 71.020836
[R_front_hand03_02]
8 71.020905 0.000000 0.000030 0.002323 -0.000334 106.381714 71.020905
9 71.020905 0.000000 0.000030 0.002323 -0.000334 106.381714 71.020905
[null_rope01_connect]
8 328.732483 0.000000 -0.000238 -110.203728 -71.306488 -137.326645 328.732483
9 328.732483 0.000000 -0.000238 -105.930214 -67.946152 -138.147675 328.732483
[Rope1_Seg01]
8 0.000000 0.000000 0.000000 75.603096 -21.158201 -143.100327 0.000000
9 0.000000 0.000000 0.000000 81.311150 -20.849300 -148.750259 0.000000
[Rope1_Seg02]
8 139.999863 -0.000179 0.000000 -12.839815 15.663603 2.212466 139.999863
9 139.999863 -0.000179 0.000000 -8.848854 11.980440 2.443381 139.999863
[Rope1_Seg03]
8 139.999924 0.000060 -0.000060 -33.190151 31.446157 16.733736 139.999924
9 139.999924 0.000060 -0.000060 -21.412172 22.059931 9.490763 139.999924
[Rope1_Seg04]
8 139.999924 -0.000060 -0.000119 -14.595723 10.654943 18.029116 139.999924
9 139.999924 -0.000060 -0.000119 -21.249397 29.247761 42.925716 139.999924
[Rope1_Seg05]
8 139.999832 0.000119 -0.000060 38.777466 -0.657939 -39.649506 139.999832
9 139.999832 0.000119 -0.000060 5.758591 5.474192 -21.114819 139.999832
[Rope1_Seg06]
8 139.999954 0.000119 -0.000060 21.495611 -8.869539 -10.685876 139.999954
9 139.999954 0.000119 -0.000060 35.198040 -0.560854 -32.886318 139.999954
[Rope1_Seg07]
8 139.999985 0.000060 0.000000 5.535881 -3.342857 -2.022626 139.999985
9 139.999985 0.000060 0.000000 11.357008 -3.687032 -5.747432 139.999985
[Rope1_Seg09]
8 121.602913 0.000119 -0.000089 -89.793175 -1.359789 0.847147 121.602913
9 121.602913 0.000119 -0.000089 -89.793175 -1.359789 0.847147 121.602913
[L_mid_hand01]
8 103.859421 1.038730 8.195221 106.855484 -31.239275 -9.461397 104.187431
9 103.859421 1.038730 8.195221 106.855484 -31.239275 -9.461397 104.187431
[L_mid_hand02]
8 105.572853 -4.139662 -10.864139 -142.331345 25.752670 -28.774628 106.211075
9 105.572853 -4.139662 -10.864139 -142.331345 25.752670 -28.774628 106.211075
[L_mid_hand03]
8 104.641464 17.579376 -3.913581 -16.122810 9.734291 34.223598 106.179977
9 104.641464 17.579376 -3.913581 -16.122810 9.734291 34.223598 106.179977
[null_rope02_connect]
8 328.732849 0.000179 -0.000119 -107.713043 61.462387 -48.951832 328.732849
9 328.732849 0.000179 -0.000119 -112.832420 63.766727 -53.648476 328.732849
[Rope2_Seg01]
8 0.000148 0.000114 -0.000018 80.286469 -29.262220 -99.513458 0.000188
9 0.000148 0.000114 -0.000020 89.523323 -30.110001 -115.724770 0.000188
[Rope2_Seg02]
8 139.999741 -0.000060 -0.000119 -0.336301 8.951293 -3.999084 139.999756
9 139.999741 -0.000060 -0.000119 -1.199680 15.402984 -3.160480 139.999756
[Rope2_Seg03]
8 140.000107 0.000030 0.000000 -1.372763 10.988810 -3.281040 140.000107
9 140.000107 0.000030 0.000000 -3.531290 18.546873 -2.846349 140.000107
[Rope2_Seg04]
8 139.999802 0.000000 -0.000060 -4.896709 14.005075 -1.812091 139.999802
9 139.999802 0.000000 -0.000060 -11.510771 21.790688 -0.550961 139.999802
[Rope2_Seg05]
8 139.999985 -0.000060 0.000119 9.314577 -7.823974 -5.557075 139.999985
9 139.999985 -0.000060 0.000119 5.981522 -2.567843 -3.263628 139.999985
[Rope2_Seg06]
8 139.999893 -0.000030 -0.000119 10.014402 -21.750492 -5.278767 139.999893
9 139.999893 -0.000030 -0.000119 15.785858 -22.148901 -7.802536 139.999893
[Rope2_Seg07]
8 139.999893 0.000060 -0.000060 2.228964 -10.162065 -1.313943 139.999893
9 139.999893 0.000060 -0.000060 3.964405 -14.034948 -1.418895 139.999893
[Rope2_Seg09]
8 121.338966 0.000089 -0.000060 33.793236 -1.359788 -0.847141 121.338966
9 121.338966 0.000089 -0.000060 33.793236 -1.359788 -0.847141 121.338966
[R_mid_hand01]
8 104.680779 11.144459 -10.335981 -41.523792 25.424656 28.595957 105.778534
9 104.680779 11.144459 -10.335981 -41.523792 25.424656 28.595957 105.778534
[R_mid_hand02]
8 104.070427 2.443552 8.231699 72.847389 -32.746803 10.013901 104.424065
9 104.070427 2.443552 8.231699 72.847389 -32.746803 10.013901 104.424065
[R_mid_hand03]
8 106.028137 -11.221827 -5.996406 -167.901306 10.259192 -37.009720 106.788818
9 106.028137 -11.221827 -5.996406 -167.901306 10.259192 -37.009720 106.788818
[spine02]
8 129.756927 0.001550 0.000119 0.001147 -1.797837 -7.854275 129.756927
9 129.756927 0.001550 0.000119 0.001147 -1.797837 -7.854275 129.756927
[spine03]
8 79.115631 0.000000 -0.000119 1.459971 -2.848092 23.765963 79.115631
9 79.115631 0.000000 -0.000119 1.459971 -2.848092 23.765963 79.115631
[pelvis]
8 169.435242 0.051022 0.000000 -0.000005 0.000003 -4.322055 169.435257
9 169.435242 0.051022 0.000000 -0.000005 0.000003 -4.322055 169.435257
[null_rope03_connect]
8 -1.257226 -2.466202 137.391083 53.978893 -84.592888 20.511681 137.418976
9 -1.257226 -2.466202 137.391083 57.065403 -84.837219 17.539751 137.418976
[null_rope04_connect]
8 -1.259640 -2.480268 -137.844437 53.978893 -84.592888 20.511681 137.872513
9 -1.259640 -2.480268 -137.844437 57.065403 -84.837219 17.539751 137.872513
[Rope3_Seg01]
8 0.000010 0.000034 -0.000135 -126.537277 9.217662 -56.512257 0.000139
9 0.000010 0.000033 -0.000132 -128.107391 4.308597 -56.800179 0.000137
[Rope3_Seg02]
8 139.999924 -0.000119 0.000060 -0.651903 6.067332 2.998520 139.999924
9 139.999924 -0.000119 0.000060 -0.390269 4.545890 3.223644 139.999924
[Rope3_Seg03]
8 139.999924 -0.000119 0.000119 -0.229307 8.307231 4.265387 139.999924
9 139.999924 -0.000119 0.000119 -0.173309 6.044289 4.381574 139.999924
[Rope3_Seg04]
8 139.999924 0.000119 0.000000 0.917808 11.711052 6.353414 139.999924
9 139.999924 0.000119 0.000000 0.337950 8.202483 6.276587 139.999924
[Rope3_Seg05]
8 139.999924 -0.000238 0.000060 5.155440 18.240368 11.127333 139.999924
9 139.999924 -0.000238 0.000060 2.108445 11.899947 11.214384 139.999924
[Rope3_Seg06]
8 139.999893 -0.000119 -0.000060 5.065289 10.477150 3.832400 139.999893
9 139.999893 -0.000119 -0.000060 3.759889 10.872429 5.973754 139.999893
[Rope3_Seg07]
8 139.999771 0.000060 -0.000119 1.564776 -0.470223 -3.492363 139.999771
9 139.999771 0.000060 -0.000119 4.123558 5.972709 -2.573407 139.999771
[Rope3_Seg08]
8 139.999985 -0.000060 0.000000 1.201250 -0.675340 -2.909056 139.999985
9 139.999985 -0.000060 0.000000 3.218240 4.337620 -1.599504 139.999985
[Rope3_Seg09]
8 90.185997 -0.000179 -0.000060 89.793228 -1.359877 -0.847183 90.185997
9 90.185997 -0.000179 -0.000060 89.793228 -1.359877 -0.847183 90.185997
[R_rear_hand01]
8 103.366196 -6.073594 -10.757982 -161.551193 16.666374 -30.088671 104.101845
9 103.366196 -6.073594 -10.757982 -161.551193 16.666374 -30.088671 104.101845
[R_rear_hand02]
8 100.509819 12.039542 -7.992327 -34.280552 19.289745 28.875523 101.543350
9 100.509819 12.039542 -7.992327 -34.280552 19.289745 28.875523 101.543350
[R_rear_hand03]
8 101.539970 5.215704 5.435467 83.366440 -30.933914 7.284830 101.819031
9 101.539970 5.215704 5.435467 83.366440 -30.933914 7.284830 101.819031
[Rope4_Seg01]
8 0.000010 0.000038 -0.000114 39.738373 6.333683 -38.717628 0.000121
9 0.000010 0.000038 -0.000114 28.647833 -5.008815 -44.599281 0.000121
[Rope4_Seg02]
8 139.999985 0.000060 0.000119 11.712130 -21.551483 -22.026270 139.999985
9 139.999985 0.000060 0.000119 14.174666 -11.115828 -23.992126 139.999985
[Rope4_Seg03]
8 139.999924 0.000000 -0.000238 4.582155 -20.906267 -16.510376 139.999924
9 139.999924 0.000000 -0.000238 4.925200 -11.599284 -16.603371 139.999924
[Rope4_Seg04]
8 139.999985 0.000000 0.000119 1.128376 -12.835604 -10.211950 139.999985
9 139.999985 0.000000 0.000119 1.274251 -6.659138 -10.640210 139.999985
[Rope4_Seg05]
8 139.999802 -0.000060 -0.000119 0.113966 -4.642218 -2.770140 139.999802
9 139.999802 -0.000060 -0.000119 0.163080 -4.383360 -3.311181 139.999802
[Rope4_Seg06]
8 139.999924 0.000000 0.000060 0.414285 -2.031727 0.162494 139.999924
9 139.999924 0.000000 0.000060 0.389928 -4.653356 -0.053782 139.999924
[Rope4_Seg07]
8 139.999802 0.000000 0.000000 0.939676 -0.698729 2.756031 139.999802
9 139.999802 0.000000 0.000000 1.015216 -6.158376 2.062110 139.999802
[Rope4_Seg08]
8 139.999924 0.000000 0.000119 -0.839532 -1.311166 1.752373 139.999924
9 139.999924 0.000000 0.000119 -0.769088 -4.601892 0.334504 139.999924
[Rope4_Seg09]
8 90.185791 0.000060 0.000060 -135.617828 2.228885 0.850567 90.185791
9 90.185791 0.000060 0.000060 -135.617828 2.228885 0.850567 90.185791
[L_rear_hand01]
8 101.696655 -8.392275 -7.654577 -34.454281 -18.946800 151.655121 102.329041
9 101.696655 -8.392275 -7.654577 -34.454281 -18.946800 151.655121 102.329041
[L_rear_hand02]
8 102.726799 -1.568258 5.773216 83.407906 30.330435 172.796509 102.900848
9 102.726799 -1.568258 5.773216 83.407906 30.330435 172.796509 102.900848
[L_rear_hand03]
8 104.552910 9.721220 -10.420293 -161.379868 -16.473232 -150.512238 105.519653
9 104.552910 9.721220 -10.420293 -161.379868 -16.473232 -150.512238 105.519653
